# xmcd
#
# Track frame offsets: 
#        150
#        21270
#        34218
#        54988
#        78837
#        90901
#        97623
#        114751
#        135757
#        145279
#        165626
#        178697
#        198036
#        217961
#        241290
#
# Disc length: 3462 seconds
#
# Revision: 0
# Processed by: cddbd v1.5.2PL0 Copyright (c) Steve Scherf et al.
# Submitted via: ExactAudioCopy v0.99pb5
#
DISCID=a90d840f
DTITLE=Middle Child - The Intro
DYEAR=2001
DGENRE=R&B
TTITLE0=The Intro
TTITLE1=No Make Up
TTITLE2=It's Late
TTITLE3=Arms Is My Home
TTITLE4=I Feel You Part 1
TTITLE5=I Feel You Part 2
TTITLE6=For The Night
TTITLE7=Up On Top
TTITLE8=Wildflower
TTITLE9=Your Arrival
TTITLE10=Can I Get It
TTITLE11=Hold On To Love
TTITLE12=All Your Love
TTITLE13=The Nigga Song
TTITLE14=Woi Yae
EXTD=
EXTT0=
EXTT1=
EXTT2=
EXTT3=
EXTT4=
EXTT5=
EXTT6=
EXTT7=
EXTT8=
EXTT9=
EXTT10=
EXTT11=
EXTT12=
EXTT13=
EXTT14=
PLAYORDER=
